<svg id="Layer_1" data-name="Layer 1" xmlns="http://www.w3.org/2000/svg" viewBox="0 0 360.53 126.06"><defs><style>.cls-1{fill:#ca1c68;}.cls-2{fill:#23272a;}</style></defs><path class="cls-1" d="M416.31,320.06a7.63,7.63,0,1,1,7.62,7.63,7.63,7.63,0,0,1-7.62-7.63m-20.59,0a28.22,28.22,0,1,0,28.21-28.21,28.21,28.21,0,0,0-28.21,28.21" transform="translate(-315.23 -222.22)"/><path class="cls-1" d="M335.82,320.06a7.63,7.63,0,1,1,7.63,7.63,7.64,7.64,0,0,1-7.63-7.63m-20.59,0a28.22,28.22,0,1,0,28.22-28.21,28.22,28.22,0,0,0-28.22,28.21" transform="translate(-315.23 -222.22)"/><path class="cls-2" d="M549.79,310.79c0-20.42-14.7-35.13-33.38-35.13-9.55,0-16.25,3.83-20.92,9.69V243.8H480.93V344.18h14.56v-7.95c4.67,5.86,11.37,9.69,20.92,9.69,18.68,0,33.38-14.71,33.38-35.13m-15,0c0,11.71-7.6,21.4-20.15,21.4-12,0-20.14-9.2-20.14-21.4s8.15-21.4,20.14-21.4c12.55,0,20.15,9.69,20.15,21.4" transform="translate(-315.23 -222.22)"/><path class="cls-2" d="M602.09,290.65V277.4H576.51V257.19H561.88V320c0,17.78,8.85,25.93,24,25.93a35.94,35.94,0,0,0,20.5-6.62l-5.79-11.64c-4,2.51-8.92,4.53-13.45,4.53-5.86,0-10.6-3.56-10.6-12.48V290.65Z" transform="translate(-315.23 -222.22)"/><path class="cls-2" d="M670.33,280.66a53.6,53.6,0,0,0-23.21-4.93c-17,0-27.61,8.23-27.61,21.4,0,10.8,7.81,17.56,22.66,19.59l7,.9c8,1.12,11.57,3.56,11.57,7.39,0,5-5.16,8.16-15.2,8.16-10.8,0-17.28-3.14-22-6.83l-6.76,10.94c9.68,7.25,21.81,8.57,28.64,8.57,19.24,0,30.4-9,30.4-21.82,0-11.43-8.65-17.56-23.22-19.72l-6.9-1.05c-6.13-.9-11-2.16-11-6.9s4.6-7.94,12.62-7.94a43.5,43.5,0,0,1,17.88,4.27Z" transform="translate(-315.23 -222.22)"/><path class="cls-1" d="M383.15,222.22a28.22,28.22,0,1,0,28.22,28.21A28.22,28.22,0,0,0,383.15,222.22Zm0,35.84a7.63,7.63,0,1,1,7.63-7.63A7.64,7.64,0,0,1,383.15,258.06Z" transform="translate(-315.23 -222.22)"/></svg>