<svg width="574" height="71" viewBox="0 0 574 71" fill="none" xmlns="http://www.w3.org/2000/svg">
<path fill-rule="evenodd" clip-rule="evenodd" d="M88.1562 20.8721C88.1562 16.0721 89.3563 12.2721 91.6562 9.57207C94.0563 6.67207 97.4562 5.37207 102.256 5.37207C107.056 5.37207 110.556 6.77207 112.956 9.57207C115.356 12.4721 116.556 16.0721 116.556 20.8721V52.8721C116.556 57.6721 115.356 61.2721 112.956 64.1721C110.556 67.0721 107.056 68.4721 102.256 68.4721C97.4562 68.4721 93.9562 67.0721 91.6562 64.1721C89.2562 61.2721 88.1562 57.6721 88.1562 52.8721V20.8721ZM94.8562 53.1721C94.8562 56.0721 95.4562 58.1721 96.6562 59.6721C97.8563 61.1721 99.7562 62.0721 102.156 62.0721C104.556 62.0721 106.556 61.2721 107.756 59.6721C108.956 58.0721 109.556 55.8721 109.556 53.1721V20.4721C109.556 17.5721 108.956 15.4721 107.756 13.9721C106.556 12.4721 104.756 11.5721 102.156 11.5721C99.5563 11.5721 97.8563 12.3721 96.6562 13.9721C95.4562 15.5721 94.8562 17.7721 94.8562 20.4721V53.1721Z" fill="#525355"/>
<path fill-rule="evenodd" clip-rule="evenodd" d="M129.056 67.7717H122.856V5.97168H131.656L145.956 50.6717V5.97168H151.956V67.7717H144.856L129.056 17.7717V67.7717Z" fill="#525355"/>
<path fill-rule="evenodd" clip-rule="evenodd" d="M181.156 33.2717V39.4717H166.056V61.4717H184.556V67.7717H159.156V5.97168H184.556V12.2717H166.056V33.2717H181.156Z" fill="#525355"/>
<path fill-rule="evenodd" clip-rule="evenodd" d="M212.456 34.8717L208.956 67.7717H195.556L188.656 5.97168H198.156L203.356 54.7717L208.056 5.97168H217.456L222.356 55.0717L227.356 5.97168H235.756L228.856 67.7717H216.056L212.456 34.8717Z" fill="#0396CF"/>
<path fill-rule="evenodd" clip-rule="evenodd" d="M249.556 53.5721C249.556 55.8721 250.056 57.3721 250.956 58.3721C251.956 59.3721 253.056 59.7721 254.656 59.7721C256.256 59.7721 257.356 59.2721 258.356 58.3721C259.356 57.4721 259.756 55.8721 259.756 53.5721V20.1721C259.756 17.8721 259.256 16.3721 258.356 15.3721C257.356 14.3721 256.256 13.9721 254.656 13.9721C253.056 13.9721 251.956 14.4721 250.956 15.3721C249.956 16.3721 249.556 17.8721 249.556 20.1721V53.5721ZM239.756 20.8721C239.756 15.8721 241.056 12.0721 243.556 9.37207C246.056 6.67207 249.756 5.37207 254.456 5.37207C259.156 5.37207 262.856 6.67207 265.356 9.37207C267.856 12.0721 269.156 15.8721 269.156 20.8721V52.9721C269.156 57.9721 267.856 61.7721 265.356 64.4721C262.856 67.1721 259.156 68.4721 254.456 68.4721C249.756 68.4721 246.056 67.1721 243.556 64.4721C241.056 61.7721 239.756 57.9721 239.756 52.9721V20.8721Z" fill="#0396CF"/>
<path fill-rule="evenodd" clip-rule="evenodd" d="M295.957 67.7721C295.957 67.3721 295.757 66.9721 295.557 66.5721C295.557 66.1721 295.357 65.7721 295.157 65.2721C295.157 64.7721 295.057 64.0721 295.057 63.2721V50.4721C295.057 47.5721 294.557 45.5721 293.557 44.3721C292.557 43.1721 290.957 42.5721 288.657 42.5721H285.357V67.7721H275.557V5.87207H290.157C295.257 5.87207 298.857 7.07207 301.057 9.47207C303.357 11.8721 304.557 15.3721 304.557 20.1721V25.0721C304.557 31.3721 302.457 35.6721 298.257 37.5721C300.757 38.5721 302.457 40.1721 303.357 42.4721C304.257 44.7721 304.757 47.4721 304.757 50.6721V60.1721C304.757 61.6721 304.757 63.0721 304.857 64.1721C304.857 65.3721 305.257 66.4721 305.657 67.6721H295.757L295.957 67.7721ZM285.357 14.7721V33.7721H289.157C290.957 33.7721 292.357 33.2721 293.457 32.3721C294.557 31.3721 294.957 29.7721 294.957 27.2721V21.1721C294.957 18.8721 294.557 17.3721 293.757 16.2721C292.957 15.2721 291.757 14.7721 289.957 14.7721H285.357Z" fill="#0396CF"/>
<path fill-rule="evenodd" clip-rule="evenodd" d="M311.156 5.97168H320.956V58.9717H336.856V67.7717H311.156V5.97168Z" fill="#0396CF"/>
<path fill-rule="evenodd" clip-rule="evenodd" d="M341.156 5.97168H356.456C361.356 5.97168 365.056 7.27168 367.356 9.87168C369.756 12.4717 370.956 16.2717 370.956 21.2717V52.5717C370.956 57.5717 369.756 61.3717 367.356 63.9717C364.956 66.5717 361.256 67.8717 356.456 67.8717H341.156V5.97168ZM350.856 14.7717V58.8717H356.356C357.856 58.8717 359.056 58.3717 359.956 57.5717C360.856 56.7717 361.256 55.0717 361.256 52.9717V20.8717C361.256 18.5717 360.756 17.0717 359.956 16.2717C359.156 15.4717 357.856 14.9717 356.356 14.9717H350.856V14.7717Z" fill="#0396CF"/>
<path fill-rule="evenodd" clip-rule="evenodd" d="M398.356 67.5719C398.356 67.1719 398.156 66.7719 397.956 66.3719C397.956 65.9719 397.756 65.5719 397.556 65.0719C397.556 64.5719 397.456 63.8719 397.456 63.0719V50.2719C397.456 47.3719 396.956 45.3719 395.956 44.1719C394.956 42.9719 393.356 42.3719 391.056 42.3719H387.756V67.5719H377.956V5.67188H392.556C397.656 5.67188 401.256 6.87188 403.456 9.27188C405.756 11.6719 406.956 15.1719 406.956 19.9719V24.8719C406.956 31.1719 404.856 35.4719 400.656 37.3719C403.156 38.3719 404.856 39.9719 405.756 42.2719C406.656 44.5719 407.056 47.2719 407.056 50.4719V59.9719C407.056 61.4719 407.056 62.8719 407.156 63.9719C407.156 65.1719 407.556 66.2719 407.956 67.4719H398.056H398.156L398.356 67.5719ZM387.856 14.4719V33.4719H391.656C393.456 33.4719 394.856 32.9719 395.956 32.0719C397.056 31.0719 397.456 29.4719 397.456 26.9719V20.8719C397.456 18.5719 397.056 17.0719 396.256 15.9719C395.456 14.9719 394.256 14.4719 392.456 14.4719H387.856Z" fill="#0396CF"/>
<path fill-rule="evenodd" clip-rule="evenodd" d="M423.256 31.7719H436.556V40.5719H423.256V58.7719H440.056V67.5719H413.656V5.67188H440.056V14.4719H423.256V31.7719Z" fill="#0396CF"/>
<path fill-rule="evenodd" clip-rule="evenodd" d="M454.656 22.7719V67.5719H445.956V5.67188H458.156L468.156 42.6719V5.67188H476.856V67.5719H466.856L454.656 22.7719Z" fill="#0396CF"/>
<path fill-rule="evenodd" clip-rule="evenodd" d="M480.856 5.67188H510.956V14.4719H500.756V67.5719H491.056V14.4719H480.856V5.67188Z" fill="#0396CF"/>
<path fill-rule="evenodd" clip-rule="evenodd" d="M543.156 67.5719H533.356L531.656 56.3719H519.756L518.056 67.5719H509.156L519.056 5.67188H533.256L543.156 67.5719ZM521.056 47.9719H530.456L525.856 16.6719L521.256 47.9719H521.156H521.056Z" fill="#0396CF"/>
<path fill-rule="evenodd" clip-rule="evenodd" d="M547.756 5.67188H557.356V58.7719H573.256V67.5719H547.756V5.67188Z" fill="#0396CF"/>
<path d="M63.9563 21.5716C63.7563 21.5716 63.6563 21.8716 63.1563 21.8716C62.1563 21.8716 60.8563 20.7716 59.4563 20.8716C55.5563 20.8716 53.2563 27.7716 59.0563 28.6716C55.5563 31.5716 51.1563 33.1716 46.8563 34.2716C42.5563 35.3716 44.5563 34.4716 43.7563 34.6716C44.1563 33.6716 48.8563 28.3716 48.1563 27.6716C42.2563 26.4716 36.4563 25.2716 30.4563 25.3716C29.8563 26.6716 32.4563 31.2716 31.9563 31.8716C29.9563 32.5716 27.9563 33.0716 26.0563 33.6716L18.8563 29.9716C7.85634 22.4716 10.2563 11.5716 21.3563 5.87159C30.8563 0.971593 44.6563 0.97159 54.3563 5.57159C64.0563 10.1716 66.3563 14.3716 64.1563 21.7716L63.9563 21.5716Z" fill="#4CAEDD"/>
<path d="M63.9557 21.5714C66.1557 14.1714 60.2557 8.37139 54.1557 5.37139C44.5557 0.771389 30.7557 0.771384 21.1557 5.67138C10.0557 11.3714 7.65566 22.3714 18.6557 29.7714L25.8557 33.4714C22.4557 34.5714 18.9557 35.6714 15.5557 36.7714C12.1557 37.8714 5.65566 41.2714 3.35566 40.9714C1.05566 40.6714 2.25566 38.6714 2.15566 37.9714C1.35566 29.4714 4.75566 19.3714 10.1557 12.9714C27.0557 -6.62861 58.3557 -3.52861 70.8557 18.9714C70.8557 19.3714 64.7557 21.2714 63.8557 21.4714L63.9557 21.5714Z" fill="#1997D2"/>
<path d="M58.9561 28.5716C63.1561 29.2716 64.5561 26.7716 63.8561 22.8716C64.4561 23.1716 64.9561 23.8716 65.6561 23.9716C68.8561 23.2716 71.9561 22.1716 75.1561 21.6716C78.3561 21.1716 79.2561 20.7716 80.6561 22.2716C84.1561 26.0716 76.8561 29.7716 74.9561 32.1716C77.7561 62.3716 41.4561 80.8716 17.4561 63.7716C15.4561 62.3716 15.0561 60.7716 12.2561 60.9716C9.45607 61.1716 2.15607 63.9716 0.656072 60.0716C-0.843928 56.1716 0.656072 58.2716 0.956072 57.2716C3.45607 51.9716 20.2561 42.4716 25.8561 39.4716C31.4561 36.4716 32.7561 35.7716 33.4561 35.9716C34.1561 36.1716 35.2561 41.1716 36.0561 41.6716C36.8561 42.1716 39.2561 39.3716 39.9561 38.7716C40.6561 38.1716 43.0561 34.8716 43.6561 34.7716C44.4561 34.5716 45.7561 34.7716 46.7561 34.3716C51.1561 33.2716 55.5561 31.6716 58.9561 28.7716V28.5716Z" fill="#1997D2"/>
<path d="M62.7564 21.9717C62.7564 21.9717 63.0564 21.9717 63.2564 22.1717C64.0564 22.1717 63.9564 22.1717 64.3564 21.9717C64.6564 20.9717 64.7564 19.9717 64.7564 18.9717C64.7564 9.57168 52.7564 1.97168 38.0564 1.97168C23.3564 1.97168 11.3564 9.57168 11.3564 18.9717C11.3564 28.3717 17.0564 31.0717 25.4564 33.9717C26.9564 33.5717 29.7564 32.6717 31.0564 32.2717C31.8564 31.9717 31.8564 31.3717 31.7564 31.0717C30.7564 28.4717 30.3564 27.4717 30.1564 26.2717C30.1564 25.7717 30.4564 25.4717 30.9564 25.3717C33.7564 25.1717 43.7564 26.6717 47.4564 27.6717C47.8564 27.6717 48.1564 28.2717 47.8564 28.6717C46.6564 30.7717 44.7564 33.0717 43.7564 34.3717C43.7564 34.3717 43.4564 34.7717 43.2564 34.9717C43.0564 35.2717 42.9564 35.2717 42.8564 35.4717C49.2564 34.6717 55.4564 32.1717 59.2564 29.0717C55.0564 28.2717 54.8564 25.0717 56.2564 22.6717C56.2564 22.6717 56.2564 22.6717 56.2564 22.4717C56.2564 22.4717 56.2564 22.2717 56.4564 22.2717C57.6564 21.2717 58.2564 20.7717 59.8564 20.9717C61.4564 21.1717 60.9564 21.1717 62.2564 21.6717C62.3898 21.6717 62.4898 21.7383 62.5564 21.8717H62.7564V21.9717Z" fill="url(#paint0_linear_554_24)"/>
<defs>
<linearGradient id="paint0_linear_554_24" x1="38.0564" y1="35.8717" x2="38.0564" y2="3.27168" gradientUnits="userSpaceOnUse">
<stop offset="0.4" stop-color="#75CEEB"/>
<stop offset="0.5" stop-color="#6DC8E9"/>
<stop offset="0.7" stop-color="#57BBE3"/>
<stop offset="1" stop-color="#34A4DB"/>
</linearGradient>
</defs>
</svg>
